HIERARCHY
ROOT Hips
{
	OFFSET 0.000000 0.000000 0.000000
	CHANNELS 6 Xposition Yposition Zposition Xrotation Yrotation Zrotation
	JOINT LeftUpLeg_virtual
	{
		OFFSET 0.000000 0.000000 0.000000
		CHANNELS 3 Xrotation Yrotation Zrotation
		JOINT LeftUpLeg
		{
			OFFSET 11.394100 -6.187798 -0.413800
			CHANNELS 3 Xrotation Yrotation Zrotation
			JOINT LeftLeg
			{
				OFFSET 0.430247 -32.302673 3.732800
				CHANNELS 3 Xrotation Yrotation Zrotation
				JOINT LeftFoot
				{
					OFFSET -0.430247 -48.264931 -6.423300
					CHANNELS 3 Xrotation Yrotation Zrotation
					JOINT LeftToeBase
					{
						OFFSET 4.230900 -16.068199 23.438400
						CHANNELS 3 Xrotation Yrotation Zrotation
						JOINT LeftToe_End
						{
							OFFSET 4.510700 0.695400 19.974600
							CHANNELS 3 Xrotation Yrotation Zrotation
							End Site
							{
								OFFSET 0 0 0
							}
						}
					}
				}
			}
		}
	}
	JOINT RightUpLeg_virtual
	{
		OFFSET 0.000000 0.000000 0.000000
		CHANNELS 3 Xrotation Yrotation Zrotation
		JOINT RightUpLeg
		{
			OFFSET -11.333700 -6.187798 -0.413800
			CHANNELS 3 Xrotation Yrotation Zrotation
			JOINT RightLeg
			{
				OFFSET -0.430392 -32.302628 3.733000
				CHANNELS 3 Xrotation Yrotation Zrotation
				JOINT RightFoot
				{
					OFFSET 0.430392 -48.264973 -6.423500
					CHANNELS 3 Xrotation Yrotation Zrotation
					JOINT RightToeBase
					{
						OFFSET -4.230900 -16.068199 23.438400
						CHANNELS 3 Xrotation Yrotation Zrotation
						JOINT RightToe_End
						{
							OFFSET -4.510700 0.695400 19.974600
							CHANNELS 3 Xrotation Yrotation Zrotation
							End Site
							{
								OFFSET 0 0 0
							}
						}
					}
				}
			}
		}
	}
	JOINT Spine_virtual
	{
		OFFSET 0.000000 0.000000 0.000000
		CHANNELS 3 Xrotation Yrotation Zrotation
		JOINT Spine
		{
			OFFSET -0.002400 12.777504 0.315300
			CHANNELS 3 Xrotation Yrotation Zrotation
			JOINT Spine1
			{
				OFFSET -0.002067 5.816869 0.032633
				CHANNELS 3 Xrotation Yrotation Zrotation
				JOINT Spine1_split
				{
					OFFSET -0.002067 5.816869 0.032633
					CHANNELS 3 Xrotation Yrotation Zrotation
					JOINT Spine2
					{
						OFFSET -0.002067 5.816869 0.032633
						CHANNELS 3 Xrotation Yrotation Zrotation
						JOINT Neck_virtual
						{
							OFFSET 0.000000 0.000000 0.000000
							CHANNELS 3 Xrotation Yrotation Zrotation
							JOINT Neck
							{
								OFFSET -0.003700 21.199493 -0.826900
								CHANNELS 3 Xrotation Yrotation Zrotation
								JOINT Head
								{
									OFFSET 0.000000 20.442200 4.834800
									CHANNELS 3 Xrotation Yrotation Zrotation
									JOINT HeadTop_End
									{
										OFFSET 0.000000 34.668396 4.968400
										CHANNELS 3 Xrotation Yrotation Zrotation
										End Site
										{
											OFFSET 0 0 0
										}
									}
								}
							}
						}
						JOINT LeftShoulder_virtual
						{
							OFFSET 0.000000 0.000000 0.000000
							CHANNELS 3 Xrotation Yrotation Zrotation
							JOINT LeftShoulder
							{
								OFFSET 3.288150 8.794197 -1.372250
								CHANNELS 3 Xrotation Yrotation Zrotation
								JOINT LeftShoulder_split
								{
									OFFSET 3.288150 8.794197 -1.372250
									CHANNELS 3 Xrotation Yrotation Zrotation
									JOINT LeftArm
									{
										OFFSET 11.953299 -2.279007 -0.146200
										CHANNELS 3 Xrotation Yrotation Zrotation
										JOINT LeftForeArm
										{
											OFFSET 18.448900 0.000000 0.000000
											CHANNELS 3 Xrotation Yrotation Zrotation
											JOINT LeftHand
											{
												OFFSET 29.527798 0.000000 0.000000
												CHANNELS 3 Xrotation Yrotation Zrotation
												End Site
												{
													OFFSET 0 0 0
												}
											}
										}
									}
								}
							}
						}
						JOINT RightShoulder_virtual
						{
							OFFSET 0.000000 0.000000 0.000000
							CHANNELS 3 Xrotation Yrotation Zrotation
							JOINT RightShoulder
							{
								OFFSET -3.249400 8.794197 -1.372250
								CHANNELS 3 Xrotation Yrotation Zrotation
								JOINT RightShoulder_split
								{
									OFFSET -3.249400 8.794197 -1.372250
									CHANNELS 3 Xrotation Yrotation Zrotation
									JOINT RightArm
									{
										OFFSET -11.953299 -2.279007 -0.146200
										CHANNELS 3 Xrotation Yrotation Zrotation
										JOINT RightForeArm
										{
											OFFSET -18.448900 0.000000 0.000000
											CHANNELS 3 Xrotation Yrotation Zrotation
											JOINT RightHand
											{
												OFFSET -29.527802 0.000000 0.000000
												CHANNELS 3 Xrotation Yrotation Zrotation
												End Site
												{
													OFFSET 0 0 0
												}
											}
										}
									}
								}
							}
						}
					}
				}
			}
		}
	}
}
MOTION
Frames: 11
Frame Time: 0.03333333
-0.953511 100.003426 -3.009167 0.000000 0.000000 0.000000 -4.045338 1.336617 2.515983 -6.448636 7.551855 7.010704 16.717574 5.515894 0.058240 -7.087388 0.524361 -4.626111 1.952109 0.179688 -1.521282 0.000000 0.000000 0.000000 -4.030630 1.352005 2.595670 -12.131397 -8.951761 -11.897605 22.717286 -5.778038 -1.595615 -5.939492 -2.092535 7.239738 -3.740025 -0.179769 -0.039192 0.000000 0.000000 0.000000 -3.166459 1.890394 2.313103 3.561455 -0.531660 0.199968 1.467684 -0.477829 0.723810 0.884213 0.070037 0.143357 0.000000 0.000000 0.000000 0.900408 -0.075689 0.211608 0.182350 0.582382 -0.778100 -4.404872 -4.983590 -1.669442 0.000000 0.000000 0.000000 0.860424 -0.154996 0.388041 0.918916 -2.115010 -15.790381 -0.028588 -0.194496 -0.532624 4.741927 -8.282346 -37.415657 0.954243 -64.852790 0.864098 0.000000 0.000000 0.000000 0.942446 -0.077077 0.439961 1.123996 5.085028 20.496397 1.541104 1.194759 -1.747665 -2.912921 5.567630 57.573352 0.343155 18.473121 0.380237 0.000000 0.000000 0.000000 
-0.996153 100.001793 -2.966690 0.000000 0.000000 0.000000 -4.102898 1.329373 2.559192 -6.422811 7.677014 7.002684 16.656043 5.475857 0.096831 -6.974522 0.534698 -4.596679 1.976124 0.181623 -1.536559 0.000000 0.000000 0.000000 -4.056466 1.331483 2.630768 -12.105568 -8.916312 -11.904463 22.814463 -5.740284 -1.586028 -5.936023 -2.076535 7.329535 -3.752049 -0.180886 -0.070311 0.000000 0.000000 0.000000 -3.226756 1.950220 2.342408 3.554451 -0.536079 0.190651 1.446483 -0.463566 0.749087 0.930489 0.003112 0.174044 0.000000 0.000000 0.000000 0.931771 -0.070294 0.252484 0.149821 0.676219 -0.917705 -4.254633 -5.000662 -1.638643 0.000000 0.000000 0.000000 0.810367 -0.134981 0.388286 0.955229 -2.076530 -15.771482 -0.120377 -0.417398 -0.524329 4.853458 -8.285979 -37.412194 0.960847 -64.781694 0.869809 0.000000 0.000000 0.000000 0.949653 -0.060382 0.470876 1.163697 4.887980 20.365678 1.172720 1.024046 -1.674414 -2.999077 5.835547 57.245089 0.410542 17.984450 0.432604 0.000000 0.000000 0.000000 
-1.021007 100.004623 -2.928757 0.000000 0.000000 0.000000 -4.141682 1.481083 2.636696 -6.378621 7.793359 6.930087 16.486632 5.427942 0.142118 -6.814992 0.531846 -4.488363 1.999363 0.182309 -1.562681 0.000000 0.000000 0.000000 -4.093264 1.444340 2.702632 -11.971647 -8.903562 -11.905510 22.903429 -5.755517 -1.576968 -5.986122 -2.094622 7.438219 -3.743931 -0.192412 -0.074139 0.000000 0.000000 0.000000 -3.289385 2.098566 2.401201 3.519917 -0.538211 0.174367 1.416822 -0.454760 0.760875 0.910183 -0.002176 0.200048 0.000000 0.000000 0.000000 0.941524 -0.073723 0.280673 0.168288 0.865826 -1.023830 -3.925090 -4.901875 -1.571248 0.000000 0.000000 0.000000 0.775431 -0.115992 0.372330 1.003934 -2.007906 -15.714455 -0.163518 -0.606551 -0.573072 4.943133 -8.267635 -37.443172 0.997108 -64.737974 0.935905 0.000000 0.000000 0.000000 0.962992 -0.049269 0.483666 1.240512 4.718003 19.994827 0.860612 0.964225 -1.575021 -3.202311 6.052737 57.146523 0.466309 17.426951 0.464672 0.000000 0.000000 0.000000 
-1.019947 100.005005 -2.890976 0.000000 0.000000 0.000000 -4.171427 1.758039 2.729860 -6.337668 7.885325 6.804266 16.273221 5.357257 0.191978 -6.647939 0.514456 -4.322458 2.020376 0.180621 -1.590939 0.000000 0.000000 0.000000 -4.136242 1.681406 2.793910 -11.738011 -8.917981 -11.899168 22.952936 -5.830188 -1.572663 -6.109228 -2.141222 7.549333 -3.709777 -0.207105 -0.060072 0.000000 0.000000 0.000000 -3.356182 2.302369 2.478154 3.463950 -0.535535 0.160877 1.378573 -0.450934 0.758342 0.846994 0.049652 0.204585 0.000000 0.000000 0.000000 0.925229 -0.084866 0.296841 0.233756 1.142388 -1.092591 -3.455274 -4.705755 -1.466910 0.000000 0.000000 0.000000 0.749164 -0.102711 0.346297 1.057570 -1.925732 -15.627389 -0.193912 -0.730634 -0.632925 4.984153 -8.228961 -37.503797 1.055400 -64.720830 1.048633 0.000000 0.000000 0.000000 0.978589 -0.042416 0.478219 1.342584 4.582480 19.419940 0.653584 0.959300 -1.488970 -3.422175 6.192586 57.286125 0.502001 16.999175 0.467930 0.000000 0.000000 0.000000 
-1.003193 99.997116 -2.862236 0.000000 0.000000 0.000000 -4.197590 2.134307 2.827525 -6.326929 7.938377 6.643287 16.073433 5.251707 0.244515 -6.512285 0.482091 -4.127108 2.038995 0.178286 -1.615544 0.000000 0.000000 0.000000 -4.178221 2.023621 2.889055 -11.442494 -8.959340 -11.887020 22.962056 -5.960288 -1.569062 -6.309976 -2.196236 7.652859 -3.652336 -0.217537 -0.036479 0.000000 0.000000 0.000000 -3.417862 2.547990 2.562007 3.393703 -0.523257 0.159969 1.334900 -0.452014 0.741865 0.809460 0.100374 0.198372 0.000000 0.000000 0.000000 0.883444 -0.099578 0.301921 0.323946 1.497761 -1.136642 -2.909743 -4.477995 -1.322632 0.000000 0.000000 0.000000 0.733294 -0.099300 0.317200 1.110494 -1.838307 -15.512159 -0.269124 -0.799813 -0.708287 4.971568 -8.184158 -37.589311 1.117580 -64.725823 1.184927 0.000000 0.000000 0.000000 0.997160 -0.041008 0.455890 1.464241 4.485458 18.675105 0.472789 0.925252 -1.422958 -3.475826 6.217124 57.616833 0.518869 17.064726 0.441586 0.000000 0.000000 0.000000 
-0.983978 99.975311 -2.843060 0.000000 0.000000 0.000000 -4.226428 2.577783 2.919594 -6.356925 7.940966 6.466809 15.916122 5.107082 0.295348 -6.420665 0.437947 -3.933969 2.044350 0.176073 -1.632466 0.000000 0.000000 0.000000 -4.228308 2.442679 2.981905 -11.124718 -9.036894 -11.878555 22.936463 -6.133397 -1.563335 -6.562562 -2.233144 7.757569 -3.594146 -0.218853 -0.009623 0.000000 0.000000 0.000000 -3.474174 2.835455 2.651723 3.322259 -0.497619 0.175688 1.290102 -0.457612 0.716288 0.798051 0.164480 0.200345 0.000000 0.000000 0.000000 0.819829 -0.114195 0.297129 0.416954 1.910763 -1.165534 -2.355573 -4.275680 -1.140555 0.000000 0.000000 0.000000 0.726220 -0.102488 0.292244 1.156497 -1.759319 -15.371156 -0.351341 -0.836128 -0.779656 4.924499 -8.144044 -37.698410 1.171831 -64.759318 1.324042 0.000000 0.000000 0.000000 1.009648 -0.045573 0.422600 1.605163 4.409164 17.792380 0.338809 0.848126 -1.357708 -3.202095 6.165256 58.103067 0.528560 18.002587 0.388198 0.000000 0.000000 0.000000 
-0.961131 99.940681 -2.826107 0.000000 0.000000 0.000000 -4.254638 3.079769 3.008708 -6.434466 7.893275 6.283462 15.798069 4.937951 0.338067 -6.363344 0.386907 -3.757864 2.025191 0.174796 -1.636367 0.000000 0.000000 0.000000 -4.280410 2.919054 3.067912 -10.815222 -9.170714 -11.883344 22.895641 -6.337352 -1.554783 -6.826888 -2.238895 7.886262 -3.562588 -0.213057 0.010235 0.000000 0.000000 0.000000 -3.522773 3.161009 2.747294 3.256479 -0.451218 0.211218 1.243858 -0.464861 0.684599 0.796584 0.208569 0.205765 0.000000 0.000000 0.000000 0.741388 -0.122599 0.283079 0.498192 2.355714 -1.192545 -1.869695 -4.143594 -0.928493 0.000000 0.000000 0.000000 0.727710 -0.110034 0.274390 1.197910 -1.688041 -15.222550 -0.405224 -0.851422 -0.823968 4.869802 -8.094568 -37.838640 1.217930 -64.829157 1.450603 0.000000 0.000000 0.000000 1.011328 -0.055722 0.379713 1.763045 4.355381 16.803187 0.269898 0.824997 -1.311557 -2.536599 6.082110 58.672390 0.535167 20.103834 0.320305 0.000000 0.000000 0.000000 
-0.944610 99.901566 -2.814453 0.000000 0.000000 0.000000 -4.270031 3.616685 3.098135 -6.553401 7.803413 6.105161 15.708764 4.752626 0.371004 -6.295313 0.330574 -3.601528 1.982032 0.175932 -1.632416 0.000000 0.000000 0.000000 -4.331885 3.438343 3.153001 -10.532270 -9.373141 -11.910540 22.852736 -6.562357 -1.542081 -7.078275 -2.207647 8.045491 -3.568017 -0.203596 0.022210 0.000000 0.000000 0.000000 -3.554556 3.545849 2.849854 3.203884 -0.379503 0.262558 1.196232 -0.466577 0.649714 0.798635 0.206778 0.239044 0.000000 0.000000 0.000000 0.662339 -0.122559 0.259248 0.565023 2.814223 -1.234617 -1.514372 -4.141622 -0.700624 0.000000 0.000000 0.000000 0.741815 -0.119068 0.262671 1.233035 -1.625148 -15.080631 -0.408886 -0.813986 -0.841044 4.821060 -8.014356 -38.022355 1.262675 -64.942265 1.561172 0.000000 0.000000 0.000000 1.001788 -0.069586 0.332753 1.934039 4.329409 15.755008 0.162858 0.888375 -1.256644 -1.444094 6.061549 59.288330 0.555133 23.379109 0.247641 0.000000 0.000000 0.000000 
-0.935465 99.871490 -2.821117 0.000000 0.000000 0.000000 -4.254001 4.177448 3.187693 -6.718508 7.686913 5.935659 15.641007 4.562466 0.394188 -6.164669 0.275423 -3.459494 1.939578 0.178253 -1.632353 0.000000 0.000000 0.000000 -4.356045 3.994376 3.241340 -10.282624 -9.658183 -11.966495 22.793043 -6.805895 -1.529116 -7.308476 -2.146372 8.234576 -3.616735 -0.191368 0.027693 0.000000 0.000000 0.000000 -3.549774 4.007855 2.959390 3.172708 -0.279312 0.331276 1.146126 -0.456565 0.612927 0.800719 0.139108 0.247305 0.000000 0.000000 0.000000 0.596874 -0.111425 0.227737 0.624395 3.268286 -1.284787 -1.299839 -4.303032 -0.474095 0.000000 0.000000 0.000000 0.763557 -0.122400 0.254641 1.258992 -1.587762 -14.958838 -0.344186 -0.727565 -0.826143 4.759211 -7.909543 -38.253844 1.312277 -65.114379 1.654366 0.000000 0.000000 0.000000 0.986111 -0.076118 0.288786 2.102709 4.358520 14.702867 0.042890 1.082909 -1.208273 -0.023565 6.174413 59.870474 0.580200 27.567815 0.180269 0.000000 0.000000 0.000000 
-0.931949 99.857132 -2.846539 0.000000 0.000000 0.000000 -4.186450 4.777297 3.279063 -6.962055 7.557920 5.769623 15.582592 4.372868 0.411984 -5.952708 0.226213 -3.316086 1.909679 0.180531 -1.638040 0.000000 0.000000 0.000000 -4.328195 4.587746 3.332876 -10.071387 -10.022653 -12.047052 22.708636 -7.066115 -1.516544 -7.534687 -2.070718 8.431822 -3.673730 -0.176476 0.032915 0.000000 0.000000 0.000000 -3.493616 4.551296 3.075726 3.166305 -0.148254 0.424840 1.096153 -0.430730 0.575728 0.801321 0.053791 0.255167 0.000000 0.000000 0.000000 0.553240 -0.084770 0.195632 0.675174 3.702731 -1.334449 -1.193440 -4.632061 -0.274545 0.000000 0.000000 0.000000 0.790895 -0.113270 0.246482 1.275787 -1.586740 -14.877629 -0.240208 -0.595184 -0.821936 4.677006 -7.805765 -38.514030 1.367779 -65.336265 1.731963 0.000000 0.000000 0.000000 0.979531 -0.065592 0.251163 2.256287 4.500686 13.693976 -0.122981 1.293234 -1.126276 1.561553 6.457540 60.280190 0.578056 32.306388 0.138222 0.000000 0.000000 0.000000 
-0.933746 99.862457 -2.889084 0.000000 0.000000 0.000000 -4.058702 5.424295 3.374960 -7.310910 7.422109 5.599747 15.530802 4.177265 0.426830 -5.666254 0.185522 -3.172680 1.896058 0.180230 -1.654518 0.000000 0.000000 0.000000 -4.232672 5.215537 3.428944 -9.922950 -10.458513 -12.151878 22.610957 -7.335761 -1.503421 -7.773424 -1.993225 8.600345 -3.663891 -0.155346 0.049733 0.000000 0.000000 0.000000 -3.381772 5.191387 3.196577 3.189785 0.010300 0.544213 1.048478 -0.389883 0.539561 0.816233 -0.047947 0.273480 0.000000 0.000000 0.000000 0.540261 -0.044298 0.170805 0.723565 4.106209 -1.380336 -1.160349 -5.101222 -0.125293 0.000000 0.000000 0.000000 0.817910 -0.088987 0.239103 1.283732 -1.631152 -14.831730 -0.116899 -0.457492 -0.788689 4.573038 -7.733339 -38.778235 1.422417 -65.586864 1.788128 0.000000 0.000000 0.000000 0.987269 -0.035492 0.227119 2.386804 4.773909 12.739038 -0.273148 1.470619 -1.064697 3.051342 6.901453 60.389336 0.522124 37.272158 0.125340 0.000000 0.000000 0.000000 
